<?xml version="1.0" standalone="no"?>
<!DOCTYPE svg PUBLIC "-//W3C//DTD SVG 20010904//EN"
 "http://www.w3.org/TR/2001/REC-SVG-20010904/DTD/svg10.dtd">
<svg version="1.0" xmlns="http://www.w3.org/2000/svg"
 width="1206.000000pt" height="517.000000pt" viewBox="0 0 1206.000000 517.000000"
 preserveAspectRatio="xMidYMid meet">

<g transform="translate(0.000000,517.000000) scale(0.100000,-0.100000)"
fill="#000000" stroke="none">
<path d="M1613 3960 c-39 -23 -53 -48 -53 -94 0 -52 36 -88 95 -95 41 -5 50
-10 69 -43 20 -36 20 -38 3 -67 -47 -80 17 -191 111 -191 35 0 92 37 109 70
17 34 16 79 -2 114 -8 15 -15 34 -15 41 0 18 34 45 58 45 29 0 62 34 62 65 0
28 -35 65 -62 65 -11 0 -30 -11 -44 -25 -20 -20 -24 -32 -19 -55 4 -20 1 -37
-9 -52 -14 -20 -26 -23 -80 -24 -59 -1 -65 1 -80 27 -18 30 -21 65 -7 74 5 3
12 18 16 35 9 41 -19 95 -60 114 -42 20 -53 20 -92 -4z"/>
<path d="M2272 3835 c-47 -21 -69 -75 -51 -128 8 -25 23 -44 42 -53 27 -14 28
-18 22 -57 -8 -45 -20 -67 -39 -67 -16 -1 -51 -32 -65 -57 -53 -99 68 -221
169 -170 33 17 70 74 70 109 0 22 6 31 28 39 19 7 31 7 42 0 43 -32 83 -24
105 20 15 28 15 33 1 55 -22 32 -60 40 -91 20 -14 -9 -25 -23 -25 -31 0 -8
-15 -21 -32 -29 -31 -13 -35 -12 -63 15 -17 16 -36 29 -42 29 -22 0 -34 28
-27 65 5 28 13 39 38 49 40 17 56 36 62 78 14 85 -66 148 -144 113z"/>
<path d="M3202 3836 c-38 -20 -62 -66 -62 -117 0 -38 6 -53 34 -85 32 -37 36
-39 92 -39 71 0 106 21 129 79 14 35 14 43 0 86 -21 62 -59 90 -122 90 -26 -1
-58 -6 -71 -14z"/>
<path d="M9494 3803 c18 -125 25 -385 26 -908 0 -323 4 -596 10 -630 31 -189
180 -291 395 -270 77 7 188 39 204 59 13 15 81 182 81 198 0 6 -26 -14 -57
-44 -67 -63 -133 -103 -183 -112 -57 -10 -128 8 -162 40 -66 63 -63 34 -66
637 l-3 548 215 -3 214 -3 13 53 c7 32 9 56 3 60 -5 4 -70 5 -144 1 -74 -4
-173 -7 -219 -8 l-84 -1 6 163 c4 89 12 179 18 200 18 66 16 67 -137 67 l-137
0 7 -47z"/>
<path d="M1341 3789 c-51 -20 -62 -75 -22 -109 10 -8 21 -28 24 -43 3 -23 -1
-31 -22 -44 -14 -9 -38 -28 -53 -41 -27 -25 -28 -25 -67 -8 -34 16 -39 23 -44
59 -10 70 -77 112 -138 86 -35 -14 -69 -62 -69 -97 0 -31 26 -79 49 -92 32
-16 91 -12 121 10 28 20 30 20 67 3 44 -21 54 -32 48 -53 -6 -20 28 -75 60
-96 33 -21 116 -15 146 12 35 31 49 78 37 121 -12 47 -22 59 -70 89 -45 29
-50 60 -13 94 39 37 31 85 -20 112 -5 3 -21 2 -34 -3z"/>
<path d="M860 3355 c-39 -42 -14 -105 42 -105 17 0 32 -9 43 -27 16 -24 16
-28 1 -54 -9 -15 -16 -39 -16 -53 0 -44 -85 -66 -112 -28 -37 53 -106 56 -154
8 -45 -45 -47 -92 -6 -137 24 -27 36 -32 75 -33 52 -1 75 16 105 75 14 28 23
35 55 37 30 3 45 -3 74 -27 70 -58 168 -35 199 46 18 46 15 71 -15 120 -23 37
-71 54 -129 46 -33 -4 -39 -2 -49 20 -7 14 -10 41 -7 59 4 25 1 37 -13 49 -30
27 -70 29 -93 4z"/>
<path d="M2702 3333 c-31 -28 -44 -80 -30 -120 11 -30 10 -35 -17 -63 -23 -24
-36 -29 -70 -28 -22 0 -54 -2 -71 -6 -70 -15 -100 -134 -49 -195 51 -60 126
-62 187 -4 24 23 32 25 55 17 14 -5 34 -22 43 -39 14 -25 23 -30 56 -30 33 0
41 4 53 29 12 26 12 33 0 55 -17 30 -60 39 -94 21 -37 -20 -78 6 -86 52 -3 20
-12 44 -19 53 -11 13 -9 20 11 43 13 15 25 29 26 31 2 2 29 3 62 2 54 -2 60 0
85 29 60 72 15 170 -77 170 -28 0 -52 -6 -65 -17z"/>
<path d="M4265 3324 c-97 -15 -225 -74 -334 -153 -35 -25 -72 -53 -84 -61 -20
-14 -20 -13 -13 65 4 44 10 90 13 103 l5 22 -145 0 -145 0 15 -57 c11 -44 15
-155 20 -468 5 -376 -2 -574 -23 -717 l-6 -38 142 0 142 0 -6 23 c-17 68 -30
340 -29 615 0 358 -11 319 111 403 115 80 212 119 295 119 116 0 187 -55 223
-173 17 -57 19 -94 17 -432 -1 -285 -5 -390 -17 -459 -9 -49 -16 -90 -16 -92
0 -2 65 -4 144 -4 l143 0 -14 73 c-10 51 -17 199 -22 517 -7 435 -7 446 -31
505 -28 72 -105 153 -173 183 -47 21 -156 34 -212 26z"/>
<path d="M3134 3288 c17 -82 36 -443 35 -638 -1 -204 -20 -537 -34 -601 l-7
-29 143 0 142 0 -7 43 c-35 223 -35 1000 0 1220 l6 37 -142 0 -142 0 6 -32z"/>
<path d="M5340 3296 c-143 -43 -268 -127 -349 -234 -113 -150 -160 -375 -115
-560 77 -314 328 -503 669 -503 311 -1 540 153 645 431 23 59 25 79 25 230 0
151 -2 171 -25 230 -80 215 -227 348 -451 410 -106 29 -295 27 -399 -4z m267
-72 c177 -41 286 -162 344 -384 18 -69 22 -112 21 -230 0 -127 -3 -154 -25
-222 -43 -133 -117 -221 -225 -271 -39 -18 -65 -22 -157 -22 -99 0 -116 3
-168 27 -168 79 -271 276 -284 548 -14 295 99 497 307 551 83 22 104 22 187 3z"/>
<path d="M10660 3296 c-163 -55 -284 -159 -358 -306 -64 -130 -75 -187 -69
-365 4 -125 9 -161 29 -215 75 -202 219 -331 438 -391 107 -29 304 -29 415 2
146 40 158 48 190 125 16 38 32 74 36 79 4 6 11 28 15 50 l7 40 -42 -53 c-48
-60 -137 -122 -214 -149 -39 -13 -82 -18 -172 -18 -112 0 -124 2 -180 29 -78
39 -165 127 -203 208 -41 87 -72 203 -72 271 l0 57 485 0 485 0 0 38 c0 44
-30 184 -55 257 -25 71 -98 177 -157 229 -60 53 -150 99 -233 121 -91 23 -263
19 -345 -9z m234 -72 c106 -27 182 -92 240 -204 32 -62 66 -185 66 -236 l0
-24 -361 0 -362 0 6 78 c15 195 120 346 267 386 71 19 71 19 144 0z"/>
<path d="M6230 3302 c-6 -2 -1 -17 11 -33 44 -62 103 -180 180 -359 44 -102
84 -194 89 -205 5 -11 45 -105 90 -210 227 -531 209 -495 245 -495 18 0 37 6
43 13 5 6 119 262 252 567 229 525 293 662 328 703 14 16 9 17 -96 17 l-112 0
0 -49 c0 -48 -17 -103 -83 -261 -39 -97 -158 -372 -189 -440 -12 -25 -27 -61
-35 -80 -38 -92 -48 -110 -60 -110 -7 0 -13 5 -13 11 0 6 -7 25 -14 42 -17 36
-175 413 -248 591 -55 135 -75 205 -77 276 l-1 25 -150 0 c-83 0 -155 -2 -160
-3z"/>
<path d="M1660 3281 c-21 -40 -6 -72 36 -77 33 -3 74 -45 74 -75 0 -12 7 -19
20 -19 22 0 29 40 8 41 -25 1 -60 58 -54 85 4 13 2 33 -4 44 -14 27 -66 27
-80 1z"/>
<path d="M1960 3262 c-38 -12 -40 -59 -4 -93 26 -24 27 -39 9 -96 -5 -17 -3
-25 10 -29 22 -9 37 14 24 37 -16 31 -10 81 13 106 18 19 19 27 10 47 -11 24
-37 36 -62 28z"/>
<path d="M1416 3145 c-19 -20 -20 -35 -3 -59 11 -15 21 -17 48 -12 54 11 90 8
111 -11 14 -12 24 -14 34 -8 22 14 18 30 -8 33 -55 6 -93 22 -103 44 -12 28
-56 35 -79 13z"/>
<path d="M2161 3064 c-19 -14 -22 -23 -18 -53 6 -38 -11 -71 -45 -84 -25 -9
-23 -47 2 -47 12 0 20 7 20 17 0 33 43 83 72 83 26 0 48 23 48 49 0 13 -36 51
-48 51 -4 0 -18 -7 -31 -16z"/>
<path d="M1460 2930 c0 -5 -18 -15 -40 -21 -35 -11 -42 -10 -60 6 -18 16 -23
17 -45 5 -43 -23 -31 -90 17 -90 22 0 33 7 46 29 18 32 37 41 90 41 25 0 32 4
32 20 0 13 -7 20 -20 20 -11 0 -20 -4 -20 -10z"/>
<path d="M2197 2760 c-12 -31 -52 -51 -92 -47 -14 1 -21 -5 -23 -20 -3 -24 21
-33 33 -13 3 5 21 17 40 26 32 15 36 15 64 -2 29 -17 31 -17 51 1 39 35 20 85
-33 85 -23 0 -31 -6 -40 -30z"/>
<path d="M732 2737 c-26 -27 -28 -54 -6 -85 16 -23 67 -31 79 -12 9 15 48 12
73 -6 14 -10 22 -26 22 -44 0 -16 5 -41 12 -55 10 -23 8 -29 -17 -55 -19 -19
-35 -28 -45 -24 -41 17 -90 6 -121 -27 -49 -53 -34 -124 33 -158 38 -19 74
-17 109 4 23 15 40 76 33 120 -5 39 -3 47 21 71 23 23 32 25 66 20 104 -17
182 91 134 184 -23 44 -53 60 -111 60 -44 0 -57 -5 -84 -30 -27 -26 -37 -29
-59 -22 -14 5 -32 21 -39 36 -12 23 -46 46 -71 46 -4 0 -17 -10 -29 -23z"/>
<path d="M1445 2703 c-9 -40 -44 -73 -76 -73 -41 0 -56 -60 -20 -80 46 -24 86
4 77 54 -6 33 22 75 57 89 21 8 11 37 -13 37 -11 0 -20 -10 -25 -27z"/>
<path d="M2778 2663 c-15 -16 -29 -40 -33 -54 -5 -19 -16 -28 -48 -36 -40 -11
-43 -10 -79 23 -32 29 -45 34 -87 34 -39 0 -56 -6 -80 -26 -69 -58 -59 -164
21 -205 42 -21 70 -24 98 -9 26 14 50 -22 50 -76 0 -49 23 -74 68 -74 75 0 68
111 -7 122 -13 1 -33 15 -44 30 -19 25 -19 28 -4 52 10 14 17 39 17 55 0 27 5
31 41 41 40 11 43 10 76 -22 44 -43 107 -47 147 -9 70 66 26 181 -68 181 -33
0 -48 -6 -68 -27z"/>
<path d="M1565 2550 c-7 -11 12 -50 24 -50 10 0 21 24 21 46 0 16 -36 19 -45
4z"/>
<path d="M1965 2550 c-10 -17 5 -30 35 -30 43 0 81 -18 87 -41 8 -31 51 -44
74 -23 22 19 25 54 7 72 -15 15 -64 16 -73 2 -10 -17 -50 -11 -73 10 -23 22
-47 26 -57 10z"/>
<path d="M1760 2480 c0 -6 16 -27 36 -46 29 -30 34 -41 29 -64 -8 -38 13 -70
45 -70 33 0 50 17 50 48 0 29 -25 51 -57 52 -26 0 -53 35 -53 67 0 18 -6 23
-25 23 -14 0 -25 -5 -25 -10z"/>
<path d="M1562 2427 c-39 -41 -23 -87 28 -87 18 0 31 8 40 25 12 22 11 29 -6
52 -27 36 -36 37 -62 10z"/>
<path d="M1192 2279 c-30 -30 -37 -43 -44 -94 -4 -26 -45 -35 -86 -18 -59 24
-103 -12 -88 -73 13 -51 100 -57 112 -8 13 51 63 57 114 14 19 -17 41 -30 48
-30 11 0 13 -9 8 -37 -3 -21 -6 -43 -6 -49 0 -7 -12 -15 -26 -18 -105 -27 -92
-186 16 -202 101 -15 158 114 80 180 -25 21 -30 32 -30 70 0 43 2 47 35 60 80
34 100 150 36 208 -26 23 -40 28 -84 28 -46 0 -58 -4 -85 -31z"/>
<path d="M2160 2243 c-22 -9 -60 -55 -66 -81 -16 -61 17 -128 77 -152 38 -16
40 -57 4 -88 -47 -41 -19 -112 44 -112 52 0 76 86 30 110 -13 8 -19 21 -19 45
0 29 5 37 33 51 17 9 40 26 49 37 18 20 19 20 58 2 35 -16 40 -22 40 -51 0
-23 9 -44 29 -66 25 -28 36 -33 76 -33 40 0 51 5 76 33 68 76 10 184 -91 167
-22 -4 -44 -13 -51 -21 -15 -18 -31 -18 -73 4 -28 13 -36 23 -36 45 0 64 -46
110 -114 114 -28 1 -58 0 -66 -4z"/>
<path d="M1669 2113 c-56 -35 -76 -112 -42 -170 15 -27 15 -31 -2 -56 -11 -18
-26 -27 -44 -27 -42 0 -56 -15 -56 -60 0 -44 14 -60 53 -60 47 0 62 17 62 69
0 64 17 78 97 79 61 0 63 -1 83 -35 19 -33 20 -37 5 -53 -20 -22 -23 -91 -6
-124 8 -14 31 -32 53 -41 33 -13 43 -13 72 -1 60 25 83 88 55 150 -13 28 -60
51 -101 48 -23 -2 -31 4 -48 39 -20 38 -20 43 -6 74 43 90 -14 185 -111 185
-21 0 -50 -8 -64 -17z"/>
</g>
</svg>
